<svg width="71" height="71" viewBox="0 0 71 71" fill="none" xmlns="http://www.w3.org/2000/svg">
<mask id="mask0_21_43" style="mask-type:alpha" maskUnits="userSpaceOnUse" x="0" y="0" width="71" height="71">
<rect x="0.226685" width="70.0537" height="70.0537" fill="#D9D9D9"/>
</mask>
<g mask="url(#mask0_21_43)">
<path d="M27.3724 49.1835L49.4102 35.0268L27.3724 20.8701V49.1835ZM35.2535 66.6969C30.8265 66.6969 26.6916 65.8679 22.8489 64.21C19.0066 62.5516 15.6642 60.3011 12.8217 57.4586C9.97918 54.6161 7.72871 51.2737 6.07028 47.4314C4.41234 43.5887 3.58337 39.4538 3.58337 35.0268C3.58337 30.5998 4.41234 26.4649 6.07028 22.6222C7.72871 18.7799 9.97918 15.4375 12.8217 12.595C15.6642 9.75249 19.0066 7.50202 22.8489 5.8436C26.6916 4.18566 30.8265 3.35669 35.2535 3.35669C39.6805 3.35669 43.8154 4.18566 47.6581 5.8436C51.5004 7.50202 54.8427 9.75249 57.6853 12.595C60.5278 15.4375 62.7783 18.7799 64.4367 22.6222C66.0946 26.4649 66.9236 30.5998 66.9236 35.0268C66.9236 39.4538 66.0946 43.5887 64.4367 47.4314C62.7783 51.2737 60.5278 54.6161 57.6853 57.4586C54.8427 60.3011 51.5004 62.5516 47.6581 64.21C43.8154 65.8679 39.6805 66.6969 35.2535 66.6969ZM35.2535 57.5024C41.5778 57.5024 46.9048 55.3375 51.2345 51.0078C55.5642 46.6781 57.7291 41.3511 57.7291 35.0268C57.7291 28.7025 55.5642 23.3755 51.2345 19.0458C46.9048 14.7161 41.5778 12.5512 35.2535 12.5512C28.9292 12.5512 23.6022 14.7161 19.2725 19.0458C14.9428 23.3755 12.7779 28.7025 12.7779 35.0268C12.7779 41.3511 14.9428 46.6781 19.2725 51.0078C23.6022 55.3375 28.9292 57.5024 35.2535 57.5024Z" fill="#1C1B1F"/>
</g>
</svg>
